<?xml version="1.0" encoding="utf-8"?>
<!-- Generator: Adobe Illustrator 18.1.0, SVG Export Plug-In . SVG Version: 6.00 Build 0)  -->
<svg version="1.1" id="图层_1" xmlns="http://www.w3.org/2000/svg" xmlns:xlink="http://www.w3.org/1999/xlink" x="0px" y="0px"
	 viewBox="0 288.2 841.9 307" enable-background="new 0 288.2 841.9 307" xml:space="preserve">
<path fill="#FFFFFF" d="M196.1,594.8c-84.8,0-154.6-69-154.6-154.6s69.8-153.8,154.6-153.8s154.6,69,154.6,154.6
	S281.7,594.8,196.1,594.8z M196.1,300.6c-77.3,0-139.6,62.3-139.6,139.6s62.3,139.6,139.6,139.6s139.6-62.3,139.6-139.6
	S273.4,300.6,196.1,300.6z"/>
<path fill="#FFFFFF" d="M43.2,446.9H10.8c-5,0-9.1-4.2-9.1-9.1v-3.3c0-5,4.2-9.1,9.1-9.1h31.6c5,0,9.1,4.2,9.1,9.1v3.3
	C52.4,442.7,48.2,446.9,43.2,446.9z"/>
<path fill="#FFFFFF" d="M333.3,447.7c-5-2.5-8.3-10-7.5-15.8c0.8-10.8,19.9-25.8,29.1-30.8c13.3-6.6,31.6-12.5,64.8-11.6
	c24.9,0.8,40.7,4.2,52.4,8.3c12.5,5,34.9,20.8,37.4,29.1c2.5,8.3-1.7,19.1-7.5,20.8c-5.8,2.5-2.5-7.5-13.3-21.6
	c-9.1-11.6-46.5-17.5-70.6-16.6c-26.6,0-59.8,2.5-69,15c-7.5,10.8-5,24.1-9.1,24.1C335.8,449.4,333.3,447.7,333.3,447.7z"/>
<path fill="#FFFFFF" d="M784.5,465.2c-2.5,0-5,0.8-8.3,2.5c-12.5,64-69,113-137.1,113c-77.3,0-139.6-62.3-139.6-139.6
	S562.7,301.5,640,301.5c60.7,0,112.2,39.1,131.3,93.9c1.7,2.5,2.5,4.2,10,3.3c3.3,0,4.2-1.7,5-2.5c-19.9-62.3-78.1-108-147.1-108
	c-84.8,0-154.6,69-154.6,154.6S554.4,595.7,640,595.7c74.8,0,138-54,151.3-125.5C790.4,467.7,788.7,466,784.5,465.2z"/>
<g>
	<path fill="#F39800" d="M743.1,437.2c-0.1,6.5,4.5,8.5,10.3,8.5c3.3,0,8.4-1.8,8.4-6.4c0-3.6-3.5-5-6.5-5.7l-7-1.7
		c-3.7-0.9-7.1-2.7-7.1-7.6c0-3.1,2-8.9,10.9-8.9c6.3,0,11.7,3.3,11.7,9.8h-3c-0.2-4.8-4.1-7.3-8.6-7.3c-4.1,0-7.9,1.6-7.9,6.3
		c0,3,2.2,4.2,4.8,4.8l7.7,1.9c4.5,1.2,8.2,3.2,8.2,8.3c0,2.2-0.9,9-12.1,9c-7.5,0-13-3.4-12.6-11.1H743.1z"/>
	<path fill="#F39800" d="M769.2,416h3v19.6c0,7.3,3.4,10.1,9.2,10.1c5.9,0,9.3-2.8,9.3-10.1V416h3v20.2c0,6.5-3.5,12-12.3,12
		c-8.7,0-12.3-5.5-12.3-12V416z"/>
	<path fill="#F39800" d="M799.8,416h3.4l18.4,26.7h0.1V416h3v31.6h-3.4l-18.4-26.7h-0.1v26.7h-3V416z"/>
</g>
</svg>
