<?xml version="1.0" encoding="utf-8"?>
<!-- Generator: Adobe Illustrator 18.1.0, SVG Export Plug-In . SVG Version: 6.00 Build 0)  -->
<svg version="1.1" id="图层_1" xmlns="http://www.w3.org/2000/svg" xmlns:xlink="http://www.w3.org/1999/xlink" x="0px" y="0px"
	 viewBox="0 143.5 841.9 309.2" enable-background="new 0 143.5 841.9 309.2" xml:space="preserve">
<path fill="#FFFFFF" d="M196.1,451.8c-84.8,0-154.6-69-154.6-154.6s69.8-153.8,154.6-153.8s154.6,69,154.6,154.6
	S281.7,451.8,196.1,451.8z M196.1,157.6c-77.3,0-139.6,62.3-139.6,139.6s62.3,139.6,139.6,139.6s139.6-62.3,139.6-139.6
	S273.4,157.6,196.1,157.6z"/>
<path fill="#FFFFFF" d="M43.2,303.9H10.8c-5,0-9.1-4.2-9.1-9.1v-3.3c0-5,4.2-9.1,9.1-9.1h31.6c5,0,9.1,4.2,9.1,9.1v3.3
	C52.4,299.7,48.2,303.9,43.2,303.9z"/>
<path fill="#FFFFFF" d="M333.3,304.7c-5-2.5-8.3-10-7.5-15.8c0.8-10.8,19.9-25.8,29.1-30.8c13.3-6.6,31.6-12.5,64.8-11.6
	c24.9,0.8,40.7,4.2,52.4,8.3c12.5,5,34.9,20.8,37.4,29.1s-1.7,19.1-7.5,20.8c-5.8,2.5-2.5-7.5-13.3-21.6
	c-9.1-11.6-46.5-17.5-70.6-16.6c-26.6,0-59.8,2.5-69,15c-7.5,10.8-5,24.1-9.1,24.1C335.8,306.4,333.3,304.7,333.3,304.7z"/>
<path fill="#FFFFFF" d="M784.5,322.2c-2.5,0-5,0.8-8.3,2.5c-12.5,64-69,113-137.1,113c-77.3,0-139.6-62.3-139.6-139.6
	s63.2-139.6,140.5-139.6c60.7,0,112.2,39.1,131.3,93.9c1.7,2.5,2.5,4.2,10,3.3c3.3,0,4.2-1.7,5-2.5c-19.9-62.3-78.1-108-147.1-108
	c-84.8,0-154.6,69-154.6,154.6s69.8,152.9,155.4,152.9c74.8,0,138-54,151.3-125.5C790.4,324.7,788.7,323,784.5,322.2z"/>
<g enable-background="new    ">
	<path fill="#F39800" d="M745.8,294.8c-0.1,7.3,5.1,9.6,11.6,9.6c3.7,0,9.4-2,9.4-7.2c0-4-4-5.6-7.3-6.4l-7.9-1.9c-4.2-1-8-3-8-8.6
		c0-3.5,2.2-10,12.3-10c7.1,0,13.2,3.7,13.2,11.1h-3.4c-0.2-5.4-4.6-8.2-9.7-8.2c-4.6,0-8.9,1.8-8.9,7.1c0,3.3,2.4,4.8,5.4,5.4
		l8.7,2.1c5,1.3,9.2,3.6,9.2,9.4c0,2.4-1,10.2-13.6,10.2c-8.4,0-14.6-3.8-14.2-12.5H745.8z"/>
	<path fill="#F39800" d="M795.8,306.5h-2.9v-4.6h-0.1c-1.6,3.4-5,5.4-8.9,5.4c-6.5,0-9-3.7-9-9.8v-16.7h3.1v16.8
		c0.1,4.6,1.9,7.1,6.9,7.1c5.4,0,7.7-5.1,7.7-10.3v-13.5h3.1V306.5z"/>
	<path fill="#F39800" d="M801.7,280.8h3.1v4.4h0.1c1.2-3.1,4.6-5.2,8.2-5.2c7.2,0,9.4,3.8,9.4,9.9v16.6h-3.1v-16.1
		c0-4.4-1.4-7.8-6.5-7.8c-5,0-7.9,3.8-8.1,8.8v15h-3.1V280.8z"/>
</g>
</svg>
