<?xml version="1.0" encoding="UTF-8"?>
<svg width="34px" height="58px" viewBox="0 0 34 58" version="1.1" xmlns="http://www.w3.org/2000/svg" xmlns:xlink="http://www.w3.org/1999/xlink">
    <!-- Generator: Sketch 48.2 (47327) - http://www.bohemiancoding.com/sketch -->
    <title>prev_arrow</title>
    <desc>Created with Sketch.</desc>
    <defs></defs>
    <g id="feedback_wireframe-copy" stroke="none" stroke-width="1" fill="none" fill-rule="evenodd" transform="translate(-170.000000, -208.000000)">
        <g id="prev_arrow" transform="translate(187.000000, 237.000000) scale(-1, 1) translate(-187.000000, -237.000000) translate(170.000000, 208.000000)" fill="#CECECE">
            <path d="M32.2854317,31.7200213 L7.35448903,56.6380069 C6.58918229,57.3993671 5.60497842,57.726152 4.62077455,57.726152 C3.63657068,57.726152 2.6526609,57.3993671 1.88706008,56.6380069 C0.356054501,55.1147989 0.356054501,52.7209773 1.88706008,51.1972816 L24.194276,28.9999025 L1.99626358,7.12872298 C0.46574814,5.60531988 0.46574814,3.21169336 1.99626358,1.79705599 C3.52717113,0.273847982 5.93307906,0.273847982 7.35448903,1.79705599 L32.2854317,26.3885494 C33.0515227,27.1501046 33.3789371,28.0207182 33.3789371,29.1088633 C33.3789371,29.979672 33.0515227,30.9586611 32.2854317,31.7200213 Z" id="Path"></path>
        </g>
    </g>
</svg>